# xmcd CD database file
#
# Track frame offsets:
#	150
#	20265
#	40382
#	58725
#	77850
#	94550
#	111825
#	130610
#	150395
#	165675
#	184775
#
# Disc length: 2647 seconds
#
# Revision: 0
# Processed by: cddbd v1.5.1PL2 Copyright (c) Steve Scherf et al.
# Submitted via: CDex 1.51
#
DISCID=810a550b
DTITLE=佐藤博 - This Boy
DYEAR=1985
DGENRE=JPop
TTITLE0=SHINY LADY
TTITLE1=記憶の中の未来から
TTITLE2=SWEET INSPIRATION '85
TTITLE3=I CAN'T WAIT
TTITLE4=SUN GLOW
TTITLE5=LOVE IS HAPPENING
TTITLE6=ALWAYS
TTITLE7=GEMINI
TTITLE8=SAY GOODBYE
TTITLE9=ANGELINA
TTITLE10=THIS BOY
EXTD=YEAR: 1985
EXTT0=
EXTT1=
EXTT2=
EXTT3=
EXTT4=
EXTT5=
EXTT6=
EXTT7=
EXTT8=
EXTT9=
EXTT10=
PLAYORDER=
